<mxfile host="app.diagrams.net" agent="Mozilla/5.0 (Windows NT 10.0; Win64; x64) AppleWebKit/537.36 (KHTML, like Gecko) Chrome/129.0.0.0 Safari/537.36" version="24.8.0">
  <diagram name="Page-1" id="w2wgUixRn5SNA8yjD89T">
    <mxGraphModel dx="1469" dy="306" grid="1" gridSize="10" guides="1" tooltips="1" connect="1" arrows="1" fold="1" page="1" pageScale="1" pageWidth="850" pageHeight="1100" math="0" shadow="0">
      <root>
        <mxCell id="0" />
        <mxCell id="1" parent="0" />
        <mxCell id="xLCkrp8KcXFFq_XhmdWr-1" value="Quantinium App" style="rounded=1;whiteSpace=wrap;html=1;" vertex="1" parent="1">
          <mxGeometry x="110" y="60" width="100" height="180" as="geometry" />
        </mxCell>
        <mxCell id="xLCkrp8KcXFFq_XhmdWr-2" value="Quantinium Hostspot Registion portal" style="rounded=1;whiteSpace=wrap;html=1;" vertex="1" parent="1">
          <mxGeometry x="-820" y="90" width="100" height="180" as="geometry" />
        </mxCell>
        <mxCell id="xLCkrp8KcXFFq_XhmdWr-3" value="Onboarding" style="text;html=1;align=center;verticalAlign=middle;whiteSpace=wrap;rounded=0;" vertex="1" parent="1">
          <mxGeometry x="260" y="60" width="60" height="30" as="geometry" />
        </mxCell>
        <mxCell id="xLCkrp8KcXFFq_XhmdWr-8" value="" style="edgeStyle=orthogonalEdgeStyle;rounded=0;orthogonalLoop=1;jettySize=auto;html=1;" edge="1" parent="1" source="xLCkrp8KcXFFq_XhmdWr-4">
          <mxGeometry relative="1" as="geometry">
            <mxPoint x="390" y="120" as="targetPoint" />
          </mxGeometry>
        </mxCell>
        <mxCell id="xLCkrp8KcXFFq_XhmdWr-4" value="User" style="shape=umlActor;verticalLabelPosition=bottom;verticalAlign=top;html=1;outlineConnect=0;" vertex="1" parent="1">
          <mxGeometry x="275" y="90" width="30" height="60" as="geometry" />
        </mxCell>
        <mxCell id="xLCkrp8KcXFFq_XhmdWr-11" value="" style="edgeStyle=orthogonalEdgeStyle;rounded=0;orthogonalLoop=1;jettySize=auto;html=1;" edge="1" parent="1" source="xLCkrp8KcXFFq_XhmdWr-9" target="xLCkrp8KcXFFq_XhmdWr-10">
          <mxGeometry relative="1" as="geometry" />
        </mxCell>
        <mxCell id="xLCkrp8KcXFFq_XhmdWr-13" style="edgeStyle=orthogonalEdgeStyle;rounded=0;orthogonalLoop=1;jettySize=auto;html=1;" edge="1" parent="1" source="xLCkrp8KcXFFq_XhmdWr-9" target="xLCkrp8KcXFFq_XhmdWr-12">
          <mxGeometry relative="1" as="geometry" />
        </mxCell>
        <mxCell id="xLCkrp8KcXFFq_XhmdWr-9" value="Sign In" style="rounded=1;whiteSpace=wrap;html=1;" vertex="1" parent="1">
          <mxGeometry x="390" y="100" width="120" height="40" as="geometry" />
        </mxCell>
        <mxCell id="xLCkrp8KcXFFq_XhmdWr-10" value="Create Wallet" style="rounded=1;whiteSpace=wrap;html=1;" vertex="1" parent="1">
          <mxGeometry x="340" y="210" width="90" height="40" as="geometry" />
        </mxCell>
        <mxCell id="xLCkrp8KcXFFq_XhmdWr-12" value="User Metadata" style="rounded=1;whiteSpace=wrap;html=1;" vertex="1" parent="1">
          <mxGeometry x="470" y="210" width="90" height="40" as="geometry" />
        </mxCell>
      </root>
    </mxGraphModel>
  </diagram>
</mxfile>
